                                <svg viewBox="0 -121 512 512" xmlns="http://www.w3.org/2000/svg"><path d="m457.74 95.48c52.98-71.727 41.23-73.07 54.258-95.48h-101.53s-7.2148 25.051-9.418 29.535c-19.5 39.66-63.238 99.168-89.691 105.25-26.047 5.9922-22.59-55.562-20.984-82.227 1.5117-24.715 1.2539-33.363 0.52734-37.633-1.0625-6.2383-6.2969-10.789-12.578-11.582-12.949-1.6406-36.445-3.9609-62.758-2.7422l-23.539 0.78125c9.2812 20.762 15.551 14.398 18.969 38.418 3.8594 28.121 2.3398 96.547-25.355 96.547-44.398 0-94.234-133.34-95.82-136.35h-89.824l8.2188 20.566c66.238 165.82 149.08 242.62 262.43 249.01l14.75 0.42578 1.0547-14.324c1.5938-22.121 12.691-53.965 32.375-53.965 29.082 0 37.484 8.4688 56.664 32.168 18.441 22.723 31.148 36.121 60.906 36.121h75.602l-10.781-21.68c-16.836-33.801-50.605-62.777-63.793-79.586-4.7773-6.3281-9.4805-16.332-4.6133-28.434 3.9805-10.539 15.832-32.52 24.93-44.82z"/></svg>  