<?xml version="1.0" standalone="no"?>
<!DOCTYPE svg PUBLIC "-//W3C//DTD SVG 20010904//EN"
 "http://www.w3.org/TR/2001/REC-SVG-20010904/DTD/svg10.dtd">
<svg version="1.0" xmlns="http://www.w3.org/2000/svg"
  viewBox="0 0 510 150"
 preserveAspectRatio="xMidYMid meet">

<g transform="translate(0.000000,224.000000) scale(0.100000,-0.100000)"
fill="rgb(247, 229, 229)" stroke="none">
<path d="M2380 1571 c0 -5 -8 -17 -17 -26 -13 -14 -18 -42 -21 -131 -4 -101
-3 -114 12 -114 15 0 15 -2 -1 -27 -12 -18 -18 -47 -18 -88 0 -33 -4 -76 -8
-95 -8 -33 -6 -36 22 -47 22 -8 31 -18 31 -34 l0 -23 20 21 c17 19 20 38 22
164 l3 142 69 14 c37 8 70 13 71 11 2 -2 13 -50 25 -108 40 -195 52 -240 61
-240 5 0 9 3 9 8 0 4 9 61 20 127 11 66 20 126 20 132 0 7 -30 44 -66 82 l-66
70 -74 -2 c-63 -2 -73 0 -68 13 17 40 16 58 -6 70 -20 11 -21 12 -4 25 17 12
17 14 1 39 -17 26 -37 35 -37 17z"/>
<path d="M4028 1569 c-9 -6 -13 -79 -15 -279 -2 -174 1 -269 7 -265 6 3 10 -1
10 -9 0 -9 7 -16 15 -16 19 0 85 98 78 116 -7 19 5 64 17 64 6 0 10 -9 10 -21
0 -11 4 -18 10 -14 5 3 34 -27 64 -68 l56 -73 48 0 49 0 -55 90 c-30 50 -63
103 -73 118 -11 14 -19 31 -19 38 0 6 18 38 40 70 70 103 63 112 -42 59 -59
-30 -62 -30 -76 -13 -14 18 -14 17 -8 -6 19 -75 19 -77 -7 -82 l-25 -5 -7 103
c-4 57 -4 123 -1 148 l7 44 -36 4 c-19 2 -41 1 -47 -3z"/>
<path d="M192 1558 l-33 -9 2 -278 1 -279 34 20 c33 19 36 19 82 3 l47 -17
100 40 c116 46 106 29 130 237 l14 120 -30 25 c-16 14 -30 36 -31 51 -2 21
-13 31 -71 57 -48 22 -67 27 -63 16 6 -15 5 -15 -99 10 -32 8 -62 9 -83 4z
m242 -138 c29 -63 50 -165 39 -184 -24 -40 -148 -197 -150 -190 -34 124 -34
124 -55 113 -19 -10 -20 -8 -18 68 1 43 -1 115 -5 160 l-8 81 29 4 c16 2 54 5
85 6 l56 2 27 -60z"/>
<path d="M1139 1389 c0 -101 -1 -202 -1 -224 -1 -22 0 -68 0 -101 l2 -61 36
-6 c53 -9 64 -2 53 36 -5 18 -7 61 -4 97 7 94 15 440 10 440 -2 0 -11 -21 -19
-47 -8 -27 -15 -39 -15 -27 -1 11 -14 33 -31 49 l-30 29 -1 -185z"/>
<path d="M1411 1533 c-16 -63 -41 -203 -41 -234 0 -20 5 -29 16 -29 8 0 12 -5
9 -10 -4 -6 -12 -7 -18 -4 -7 4 -9 4 -5 0 4 -5 -4 -25 -17 -45 -14 -23 -26
-61 -30 -97 -3 -32 -8 -70 -11 -84 l-4 -25 21 28 c23 30 42 36 32 10 -3 -10
-3 -15 1 -12 12 11 16 50 4 43 -6 -4 9 30 32 75 23 44 46 78 51 75 5 -3 9 2 9
10 0 9 5 16 10 16 6 0 10 -7 10 -15 0 -8 14 -30 30 -49 17 -19 30 -38 29 -43
-3 -11 10 -80 23 -122 l10 -34 21 34 c12 19 24 36 27 39 3 3 5 10 5 15 0 21
38 105 48 105 5 0 5 -5 -2 -13 -8 -10 -7 -14 4 -14 8 0 12 4 9 8 -2 4 0 10 5
14 5 3 9 14 8 25 -1 10 -5 17 -9 14 -4 -3 -4 -12 -1 -22 5 -13 3 -14 -6 -6
-10 9 -10 17 -1 34 11 21 12 21 25 3 7 -10 11 -21 9 -25 -3 -4 1 -5 9 -2 17 6
43 -57 33 -81 -3 -8 -1 -15 4 -15 6 0 10 -8 10 -19 0 -10 5 -32 11 -48 9 -27
13 -30 37 -23 22 5 27 12 25 34 -1 14 2 24 8 21 5 -4 9 0 9 8 0 32 -41 217
-65 291 -14 44 -22 88 -19 99 4 11 2 17 -3 14 -6 -4 -15 11 -22 32 -6 21 -18
44 -26 51 -18 15 -13 25 -55 -130 -33 -124 -67 -203 -84 -197 -14 5 -97 208
-89 220 4 6 1 7 -7 2 -10 -6 -12 -4 -7 9 4 10 3 15 -3 11 -9 -6 -14 10 -13 42
1 7 -4 10 -10 6 -6 -4 -8 0 -4 11 4 10 3 15 -3 11 -6 -3 -10 1 -10 9 0 30 -19
16 -29 -21z"/>
<path d="M666 1551 c-9 -13 -11 -460 -3 -468 4 -3 7 -21 7 -40 0 -28 4 -33 23
-33 13 0 28 -5 34 -11 15 -15 20 7 28 131 6 97 12 110 51 110 16 0 29 -13 45
-44 13 -25 50 -78 82 -120 56 -73 58 -75 87 -64 17 5 33 14 36 19 9 14 -29 69
-90 129 -31 30 -56 59 -56 64 0 5 25 39 55 77 79 98 83 113 45 163 -17 23 -34
49 -37 58 -3 10 -13 20 -22 22 -32 10 -280 16 -285 7z m255 -112 c-10 -41 -21
-87 -25 -102 -6 -27 -8 -28 -54 -22 -86 11 -94 14 -87 34 3 11 1 22 -5 26 -8
5 -8 11 1 21 6 7 9 21 5 29 -4 12 7 22 42 37 56 26 136 56 140 53 1 -1 -6 -35
-17 -76z"/>
<path d="M2080 1401 c-36 -10 -81 -25 -102 -34 -39 -17 -57 -50 -38 -72 11
-13 7 -19 -11 -17 -3 1 -5 -9 -5 -21 1 -12 -4 -21 -10 -20 -7 1 -10 -6 -7 -17
3 -11 1 -20 -5 -20 -13 0 -1 -53 23 -103 17 -36 67 -74 91 -69 7 1 48 -6 92
-16 l80 -19 25 21 c46 40 42 53 -21 60 -75 8 -85 10 -99 19 -7 5 -13 5 -13 1
0 -3 -8 0 -17 7 -14 12 -16 12 -9 0 6 -9 4 -12 -5 -9 -8 3 -15 10 -15 16 -1 7
-3 14 -4 17 -1 3 -3 9 -4 14 0 5 -4 12 -8 16 -3 4 -5 -1 -3 -12 2 -10 4 -18 5
-18 1 0 3 -8 5 -17 2 -10 -1 -18 -5 -18 -9 0 -14 30 -24 135 l-6 51 57 33 57
34 58 -15 58 -16 -6 42 c-4 22 -9 44 -13 48 -14 16 -60 15 -121 -1z"/>
<path d="M3348 1398 c-26 -21 -28 -21 -73 -4 -25 10 -48 17 -49 15 -2 -2 -6
-89 -9 -192 l-6 -189 42 7 c23 4 46 11 50 15 5 4 2 45 -7 90 l-15 81 27 57
c25 52 31 57 81 74 30 10 55 17 57 15 11 -10 34 -187 34 -258 0 -81 2 -89 19
-89 11 0 22 -8 24 -17 4 -15 6 -15 12 5 4 12 11 22 15 22 4 0 7 26 7 58 0 31
1 94 4 139 l4 82 -55 50 c-30 27 -61 49 -70 49 -8 -1 -26 2 -40 5 -17 5 -33 0
-52 -15z"/>
<path d="M4395 1410 c-3 -5 12 -50 34 -100 23 -49 41 -96 41 -103 0 -6 18 -63
40 -126 39 -108 40 -115 23 -133 -9 -10 -23 -16 -31 -13 -33 12 -52 -5 -52
-46 0 -49 19 -59 57 -29 24 19 29 20 39 5 10 -13 13 -11 24 17 8 18 20 40 27
48 18 20 113 217 107 223 -6 5 36 133 65 201 12 27 20 51 17 53 -8 8 -77 -9
-91 -23 -7 -8 -30 -63 -50 -124 -20 -60 -40 -110 -44 -110 -5 0 -24 44 -43 98
-24 66 -40 96 -50 95 -8 -2 -32 15 -53 37 -41 42 -50 46 -60 30z"/>
<path d="M2863 1376 l-22 -34 37 -6 c20 -3 51 -6 69 -6 25 0 33 -5 41 -29 l10
-29 -56 -6 c-111 -13 -111 -13 -138 -74 -36 -82 -41 -107 -20 -99 14 6 16 1
14 -30 l-3 -37 70 -12 c116 -21 116 -21 47 48 -34 34 -62 64 -62 68 0 4 11 13
25 20 13 7 27 21 30 31 3 10 12 16 19 13 7 -3 29 5 49 16 l36 21 16 -36 c20
-51 20 -54 -25 -105 -22 -24 -36 -48 -32 -52 7 -7 124 -40 127 -35 2 1 5 64 7
140 5 126 4 140 -14 162 -14 18 -16 25 -6 26 7 0 0 7 -17 14 -16 7 -41 25 -54
39 -24 26 -69 38 -55 14 5 -8 2 -9 -10 -5 -51 20 -61 18 -83 -17z"/>
<path d="M3703 1404 c-7 -3 -13 -13 -13 -21 0 -9 -6 -13 -14 -10 -32 13 -27
-103 6 -139 11 -12 48 -36 83 -54 36 -18 62 -37 59 -41 -3 -5 0 -9 5 -9 14 0
14 -11 1 -46 -10 -25 -12 -26 -28 -10 -14 12 -21 13 -30 4 -8 -8 -23 -7 -56 4
l-46 15 6 -26 c12 -53 16 -61 29 -61 7 0 15 -5 17 -11 2 -7 32 -4 88 11 154
38 160 90 24 214 l-68 63 47 27 c26 15 56 41 68 57 l20 29 -64 0 c-36 0 -77 2
-93 5 -16 2 -35 2 -41 -1z"/>
</g>
</svg>
